<svg width="524" height="547" viewBox="0 0 524 547" fill="none" xmlns="http://www.w3.org/2000/svg">
<g id="console">
<path id="XMLID 20" opacity="0.41" d="M413.576 331.01H110.336C52.1618 331.01 5 378.172 5 436.346C5 494.521 52.1618 541.682 110.336 541.682C151.273 541.682 186.784 518.301 204.181 484.226H319.731C337.128 518.301 372.639 541.682 413.576 541.682C471.75 541.682 518.912 494.521 518.912 436.346C518.912 378.172 471.75 331.01 413.576 331.01Z" fill="black" stroke="black" stroke-width="10" stroke-miterlimit="10" stroke-linecap="round" stroke-linejoin="round"/>
<path id="XMLID 19" opacity="0.41" d="M261.956 305.235V209.954C261.956 199.021 253.098 190.163 242.166 190.163H92.5406C81.608 190.163 72.7502 181.306 72.7502 170.373C72.7502 159.44 81.608 150.583 92.5406 150.583H409.746C420.678 150.583 429.536 141.725 429.536 130.792C429.536 119.86 420.678 111.002 409.746 111.002H281.667C270.734 111.002 261.876 102.144 261.876 91.2114V7.18201" stroke="black" stroke-width="10" stroke-miterlimit="10" stroke-linecap="round" stroke-linejoin="round"/>
<path id="XMLID 43" d="M261.956 294.622V199.34C261.956 188.408 253.098 179.55 242.166 179.55H92.5406C81.608 179.55 72.7502 170.692 72.7502 159.76C72.7502 148.827 81.608 139.969 92.5406 139.969H409.746C420.678 139.969 429.536 131.111 429.536 120.179C429.536 109.246 420.678 100.388 409.746 100.388H281.667C270.734 100.388 261.876 91.5306 261.876 80.598V0" stroke="#332D2C" stroke-width="10" stroke-miterlimit="10" stroke-linejoin="round"/>
<path id="XMLID 37" d="M285.098 302.442H238.814V312.417H285.098V302.442Z" fill="#332D2C"/>
<path id="XMLID 41" d="M278.475 297.494H245.358V305.315H278.475V297.494Z" fill="#332D2C"/>
<path id="XMLID 54" d="M274.086 292.467H249.747V299.968H274.086V292.467Z" fill="#332D2C"/>
<path id="XMLID 44" d="M413.576 312.656H110.336C52.1618 312.656 5 359.818 5 417.992C5 476.167 52.1618 523.328 110.336 523.328C151.273 523.328 186.784 499.947 204.181 465.872H319.731C337.128 499.947 372.639 523.328 413.576 523.328C471.75 523.328 518.912 476.167 518.912 417.992C518.912 359.818 471.75 312.656 413.576 312.656Z" fill="#565DFE"/>
<path id="XMLID 74" d="M245.517 353.993H223.173C221.418 353.993 219.981 352.556 219.981 350.801C219.981 349.045 221.418 347.609 223.173 347.609H245.517C247.273 347.609 248.709 349.045 248.709 350.801C248.709 352.556 247.353 353.993 245.517 353.993Z" fill="#1D35B0"/>
<path id="XMLID 73" d="M308.32 354.232H262.914C261.158 354.232 259.722 352.796 259.722 351.04C259.722 349.285 261.158 347.848 262.914 347.848H308.32C310.075 347.848 311.512 349.285 311.512 351.04C311.512 352.796 310.155 354.232 308.32 354.232Z" fill="#1D35B0"/>
<path id="XMLID 71" d="M308.32 367.399H223.093C221.338 367.399 219.901 365.963 219.901 364.207C219.901 362.452 221.338 361.015 223.093 361.015H308.32C310.075 361.015 311.512 362.452 311.512 364.207C311.512 365.963 310.075 367.399 308.32 367.399Z" fill="#1D35B0"/>
<path id="XMLID 67" d="M222.136 433.075C219.343 430.282 219.343 425.733 222.136 422.94L245.836 399.239C248.629 396.446 253.178 396.446 255.971 399.239C258.764 402.032 258.764 406.581 255.971 409.374L232.27 433.075C229.477 435.868 224.929 435.868 222.136 433.075Z" fill="#1D35B0"/>
<path id="XMLID 56" d="M275.602 433.075C272.809 430.282 272.809 425.733 275.602 422.94L299.302 399.239C302.095 396.446 306.644 396.446 309.437 399.239C312.23 402.032 312.23 406.581 309.437 409.374L285.736 433.075C282.943 435.868 278.395 435.868 275.602 433.075Z" fill="#1D35B0"/>
<path id="XMLID 53" d="M110.336 321.833H413.576C470.473 321.833 516.837 366.202 518.832 421.663C518.912 420.386 518.912 419.189 518.912 417.913C518.912 359.738 471.75 312.577 413.576 312.577H110.336C52.1618 312.577 5 359.738 5 417.913C5 419.189 4.99999 420.386 5.07979 421.663C6.99499 366.202 53.3588 321.833 110.336 321.833Z" fill="#1D35B0"/>
<path id="XMLID 52" d="M413.576 509.762C372.639 509.762 339.522 492.765 322.125 458.69H201.787C184.39 492.765 151.273 509.762 110.336 509.762C54.476 509.762 8.7506 466.192 5.2394 411.209C5.0798 413.444 5 415.678 5 417.992C5 476.167 52.1618 523.328 110.336 523.328C151.273 523.328 186.784 499.947 204.181 465.872H319.731C337.128 499.947 372.639 523.328 413.576 523.328C471.75 523.328 518.912 476.167 518.912 417.992C518.912 415.678 518.832 413.444 518.673 411.209C515.161 466.192 469.436 509.762 413.576 509.762Z" fill="#1D35B0"/>
<path id="XMLID 48" d="M110.735 491.568C148.197 491.568 178.565 461.199 178.565 423.738C178.565 386.276 148.197 355.908 110.735 355.908C73.2735 355.908 42.905 386.276 42.905 423.738C42.905 461.199 73.2735 491.568 110.735 491.568Z" fill="#1D35B0"/>
<path id="XMLID 46" d="M110.735 485.024C147.756 485.024 177.767 455.013 177.767 417.992C177.767 380.972 147.756 350.96 110.735 350.96C73.7142 350.96 43.703 380.972 43.703 417.992C43.703 455.013 73.7142 485.024 110.735 485.024Z" fill="#835559"/>
<path id="XMLID 50" d="M110.735 474.65C142.026 474.65 167.393 449.284 167.393 417.992C167.393 386.701 142.026 361.334 110.735 361.334C79.4437 361.334 54.077 386.701 54.077 417.992C54.077 449.284 79.4437 474.65 110.735 474.65Z" fill="#95676B"/>
<path id="XMLID 6" d="M150.954 405.224H123.503V377.773C123.503 375.778 121.827 374.102 119.832 374.102H101.638C99.6428 374.102 97.967 375.778 97.967 377.773V405.224H70.5158C68.5208 405.224 66.845 406.9 66.845 408.895V427.09C66.845 429.085 68.5208 430.76 70.5158 430.76H97.967V458.212C97.967 460.207 99.6428 461.882 101.638 461.882H119.832C121.827 461.882 123.503 460.207 123.503 458.212V430.76H150.954C152.949 430.76 154.625 429.085 154.625 427.09V408.895C154.625 406.82 152.949 405.224 150.954 405.224Z" fill="#332D2C"/>
<path id="XMLID 7" d="M110.735 485.024C147.756 485.024 177.767 455.013 177.767 417.992C177.767 380.972 147.756 350.96 110.735 350.96C73.7142 350.96 43.703 380.972 43.703 417.992C43.703 455.013 73.7142 485.024 110.735 485.024Z" stroke="#332D2C" stroke-width="6" stroke-miterlimit="10" stroke-linecap="round" stroke-linejoin="round"/>
<path id="XMLID 51" d="M413.975 491.568C451.436 491.568 481.805 461.199 481.805 423.738C481.805 386.276 451.436 355.908 413.975 355.908C376.514 355.908 346.145 386.276 346.145 423.738C346.145 461.199 376.514 491.568 413.975 491.568Z" fill="#1D35B0"/>
<path id="XMLID 49" d="M413.975 485.024C450.996 485.024 481.007 455.013 481.007 417.992C481.007 380.972 450.996 350.96 413.975 350.96C376.954 350.96 346.943 380.972 346.943 417.992C346.943 455.013 376.954 485.024 413.975 485.024Z" fill="#835559"/>
<path id="XMLID 66" d="M413.975 474.65C445.266 474.65 470.633 449.284 470.633 417.992C470.633 386.701 445.266 361.334 413.975 361.334C382.684 361.334 357.317 386.701 357.317 417.992C357.317 449.284 382.684 474.65 413.975 474.65Z" fill="#95676B"/>
<path id="XMLID 16" d="M413.975 485.024C450.996 485.024 481.007 455.013 481.007 417.992C481.007 380.972 450.996 350.96 413.975 350.96C376.954 350.96 346.943 380.972 346.943 417.992C346.943 455.013 376.954 485.024 413.975 485.024Z" stroke="#332D2C" stroke-width="6" stroke-miterlimit="10" stroke-linecap="round" stroke-linejoin="round"/>
<path id="XMLID 10" d="M105.548 388.786L109.937 381.125C110.256 380.566 111.054 380.566 111.373 381.125L115.762 388.786C116.082 389.344 115.683 390.062 115.044 390.062H106.186C105.628 390.062 105.229 389.344 105.548 388.786Z" fill="#565DFE"/>
<path id="XMLID 12" d="M105.548 447.199L109.937 454.86C110.256 455.419 111.054 455.419 111.373 454.86L115.762 447.199C116.082 446.641 115.683 445.922 115.044 445.922H106.186C105.628 445.922 105.229 446.641 105.548 447.199Z" fill="#565DFE"/>
<path id="XMLID 55" d="M150.954 405.224H123.503V377.773C123.503 375.778 121.827 374.102 119.832 374.102H101.638C99.6428 374.102 97.967 375.778 97.967 377.773V405.224H70.5158C68.5208 405.224 66.845 406.9 66.845 408.895V427.09C66.845 429.085 68.5208 430.76 70.5158 430.76H97.967V458.212C97.967 460.207 99.6428 461.882 101.638 461.882H119.832C121.827 461.882 123.503 460.207 123.503 458.212V430.76H150.954C152.949 430.76 154.625 429.085 154.625 427.09V408.895C154.625 406.82 152.949 405.224 150.954 405.224Z" stroke="#332D2C" stroke-width="3" stroke-miterlimit="10" stroke-linecap="round" stroke-linejoin="round"/>
<path id="XMLID 11" d="M138.505 412.805L146.166 417.194C146.725 417.514 146.725 418.312 146.166 418.631L138.505 423.02C137.947 423.339 137.229 422.94 137.229 422.302V413.444C137.229 412.885 137.947 412.486 138.505 412.805Z" fill="#565DFE"/>
<path id="XMLID 9" d="M81.5282 412.805L73.8674 417.194C73.3088 417.514 73.3088 418.312 73.8674 418.631L81.5282 423.02C82.0868 423.339 82.805 422.94 82.805 422.302V413.444C82.805 412.885 82.0868 412.486 81.5282 412.805Z" fill="#565DFE"/>
<path id="XMLID 45" d="M341.517 307.868H413.975C429.536 307.868 444.379 311.14 457.865 316.966" stroke="#332D2C" stroke-width="8" stroke-miterlimit="10" stroke-linecap="round" stroke-linejoin="round"/>
<path id="XMLID 36" d="M66.845 316.966C80.3312 311.06 95.174 307.868 110.735 307.868H181.917" stroke="#332D2C" stroke-width="8" stroke-miterlimit="10" stroke-linecap="round" stroke-linejoin="round"/>
<path id="XMLID 32" d="M413.576 312.656H110.336C52.1618 312.656 5 359.818 5 417.992C5 476.167 52.1618 523.328 110.336 523.328C151.273 523.328 186.784 499.947 204.181 465.872H319.731C337.128 499.947 372.639 523.328 413.576 523.328C471.75 523.328 518.912 476.167 518.912 417.992C518.912 359.818 471.75 312.656 413.576 312.656Z" stroke="#332D2C" stroke-width="6" stroke-miterlimit="10" stroke-linecap="round" stroke-linejoin="round"/>
<path id="XMLID 65" opacity="0.17" d="M424.748 408.177L393.147 439.778C386.284 446.641 375.192 446.641 368.329 439.778C361.467 432.915 361.467 421.823 368.329 414.96L399.93 383.359C406.793 376.496 417.885 376.496 424.748 383.359C431.611 390.142 431.611 401.314 424.748 408.177Z" fill="black"/>
<path id="XMLID 59" d="M423.152 404.985L391.551 436.586C384.688 443.449 373.596 443.449 366.733 436.586C359.871 429.723 359.871 418.631 366.733 411.768L398.334 380.167C405.197 373.304 416.289 373.304 423.152 380.167C430.015 386.95 430.015 398.122 423.152 404.985Z" fill="#565DFE"/>
<path id="XMLID 2" d="M423.152 404.985L391.551 436.586C384.688 443.449 373.596 443.449 366.733 436.586C359.871 429.723 359.871 418.631 366.733 411.768L398.334 380.167C405.197 373.304 416.289 373.304 423.152 380.167C430.015 386.95 430.015 398.122 423.152 404.985Z" stroke="#332D2C" stroke-width="3" stroke-miterlimit="10" stroke-linecap="round" stroke-linejoin="round"/>
<path id="XMLID 63" d="M379.182 435.309C385.352 435.309 390.354 430.307 390.354 424.137C390.354 417.967 385.352 412.965 379.182 412.965C373.012 412.965 368.01 417.967 368.01 424.137C368.01 430.307 373.012 435.309 379.182 435.309Z" fill="#32B94D"/>
<path id="XMLID 8" d="M372 423.499C372.319 419.509 375.831 416.636 379.821 416.955" stroke="#332D2C" stroke-width="2" stroke-miterlimit="10" stroke-linecap="round" stroke-linejoin="round"/>
<path id="XMLID 18" d="M379.182 435.309C385.352 435.309 390.354 430.307 390.354 424.137C390.354 417.967 385.352 412.965 379.182 412.965C373.012 412.965 368.01 417.967 368.01 424.137C368.01 430.307 373.012 435.309 379.182 435.309Z" stroke="#332D2C" stroke-width="3" stroke-miterlimit="10" stroke-linecap="round" stroke-linejoin="round"/>
<path id="XMLID 62" d="M410.783 403.708C416.953 403.708 421.955 398.706 421.955 392.536C421.955 386.366 416.953 381.364 410.783 381.364C404.613 381.364 399.611 386.366 399.611 392.536C399.611 398.706 404.613 403.708 410.783 403.708Z" fill="#8BD8F5"/>
<path id="XMLID 13" d="M403.601 392.536C403.601 388.546 406.793 385.354 410.783 385.354" stroke="#332D2C" stroke-width="2" stroke-miterlimit="10" stroke-linecap="round" stroke-linejoin="round"/>
<path id="XMLID 17" d="M410.783 403.708C416.953 403.708 421.955 398.706 421.955 392.536C421.955 386.366 416.953 381.364 410.783 381.364C404.613 381.364 399.611 386.366 399.611 392.536C399.611 398.706 404.613 403.708 410.783 403.708Z" stroke="#332D2C" stroke-width="3" stroke-miterlimit="10" stroke-linecap="round" stroke-linejoin="round"/>
<path id="XMLID 64" opacity="0.17" d="M461.935 429.085L430.334 460.685C423.471 467.548 412.379 467.548 405.516 460.685C398.653 453.823 398.653 442.73 405.516 435.868L437.117 404.267C443.98 397.404 455.072 397.404 461.935 404.267C468.798 411.13 468.798 422.222 461.935 429.085Z" fill="black"/>
<path id="XMLID 57" d="M461.137 425.095L429.536 456.695C422.673 463.558 411.581 463.558 404.718 456.695C397.855 449.833 397.855 438.74 404.718 431.878L436.319 400.277C443.182 393.414 454.274 393.414 461.137 400.277C468 407.14 468 418.232 461.137 425.095Z" fill="#565DFE"/>
<path id="XMLID 35" d="M461.137 425.095L429.536 456.695C422.673 463.558 411.581 463.558 404.718 456.695C397.855 449.833 397.855 438.74 404.718 431.878L436.319 400.277C443.182 393.414 454.274 393.414 461.137 400.277C468 407.14 468 418.232 461.137 425.095Z" stroke="#332D2C" stroke-width="3" stroke-miterlimit="10" stroke-linecap="round" stroke-linejoin="round"/>
<path id="XMLID 61" d="M417.167 455.498C423.337 455.498 428.339 450.497 428.339 444.326C428.339 438.156 423.337 433.154 417.167 433.154C410.997 433.154 405.995 438.156 405.995 444.326C405.995 450.497 410.997 455.498 417.167 455.498Z" fill="#FEF585"/>
<path id="XMLID 15" d="M409.985 444.326C409.985 440.336 413.177 437.144 417.167 437.144" stroke="#332D2C" stroke-width="2" stroke-miterlimit="10" stroke-linecap="round" stroke-linejoin="round"/>
<path id="XMLID 34" d="M417.167 455.498C423.337 455.498 428.339 450.497 428.339 444.326C428.339 438.156 423.337 433.154 417.167 433.154C410.997 433.154 405.995 438.156 405.995 444.326C405.995 450.497 410.997 455.498 417.167 455.498Z" stroke="#332D2C" stroke-width="3" stroke-miterlimit="10" stroke-linecap="round" stroke-linejoin="round"/>
<path id="XMLID 33" d="M448.768 423.898C454.938 423.898 459.94 418.896 459.94 412.726C459.94 406.556 454.938 401.554 448.768 401.554C442.598 401.554 437.596 406.556 437.596 412.726C437.596 418.896 442.598 423.898 448.768 423.898Z" fill="#E7503B"/>
<path id="XMLID 70" d="M441.586 412.726C441.586 408.736 444.778 405.544 448.768 405.544" stroke="#332D2C" stroke-width="2" stroke-miterlimit="10" stroke-linecap="round" stroke-linejoin="round"/>
<path id="XMLID 60" d="M448.768 423.898C454.938 423.898 459.94 418.896 459.94 412.726C459.94 406.556 454.938 401.554 448.768 401.554C442.598 401.554 437.596 406.556 437.596 412.726C437.596 418.896 442.598 423.898 448.768 423.898Z" stroke="#332D2C" stroke-width="3" stroke-miterlimit="10" stroke-linecap="round" stroke-linejoin="round"/>
<path id="XMLID 14" d="M222.136 429.883C219.343 427.09 219.343 422.541 222.136 419.748L245.836 396.047C248.629 393.254 253.178 393.254 255.971 396.047C258.764 398.84 258.764 403.389 255.971 406.182L232.27 429.883C229.477 432.676 224.929 432.676 222.136 429.883Z" fill="#332D2C"/>
<path id="XMLID 38" d="M275.602 429.883C272.809 427.09 272.809 422.541 275.602 419.748L299.302 396.047C302.095 393.254 306.644 393.254 309.437 396.047C312.23 398.84 312.23 403.389 309.437 406.182L285.736 429.883C282.943 432.676 278.395 432.676 275.602 429.883Z" fill="#332D2C"/>
<path id="XMLID 58" d="M110.735 430.76C117.787 430.76 123.503 425.044 123.503 417.992C123.503 410.941 117.787 405.224 110.735 405.224C103.683 405.224 97.967 410.941 97.967 417.992C97.967 425.044 103.683 430.76 110.735 430.76Z" fill="#565DFE"/>
<path id="XMLID 72" d="M110.735 428.127C104.271 428.127 98.6852 423.02 98.0468 416.636C97.967 417.035 97.967 417.514 97.967 417.913C97.967 424.855 103.792 430.681 110.735 430.681C117.678 430.681 123.503 424.855 123.503 417.913C123.503 417.434 123.503 417.035 123.423 416.636C122.705 423.02 117.199 428.127 110.735 428.127Z" fill="#1D35B0"/>
<path id="XMLID 68" d="M101.159 417.992C101.159 412.805 105.548 408.416 110.735 408.416" stroke="#332D2C" stroke-width="2" stroke-miterlimit="10" stroke-linecap="round" stroke-linejoin="round"/>
</g>
</svg>
