<svg width="650" height="113" viewBox="0 0 650 113" fill="none" xmlns="http://www.w3.org/2000/svg">
    <path d="M113 6.5C113 2.91015 115.91 0 119.5 0C123.09 0 126 2.91015 126 6.5V95.5C126 99.0899 123.09 102 119.5 102C115.91 102 113 99.0899 113 95.5L113 6.5Z" fill="white"/>
    <path fill-rule="evenodd" clip-rule="evenodd" d="M606 7.5C606 3.91014 608.91 1 612.5 1C616.09 1 619 3.91016 619 7.5V55.7117L639.103 41.7142C642.049 39.6629 646.1 40.3882 648.151 43.3343C650.202 46.2803 649.477 50.3315 646.531 52.3828L622.495 69.1193L646.904 91.9589C649.526 94.4116 649.662 98.5249 647.21 101.146C644.757 103.768 640.644 103.904 638.022 101.451L619 83.6526V96.5C619 100.09 616.09 103 612.5 103C608.91 103 606 100.09 606 96.5V7.5Z" fill="#FF3E55"/>
    <path d="M61 52C61 48.134 64.134 45 68 45C71.866 45 75 48.134 75 52V96C75 99.866 71.866 103 68 103C64.134 103 61 99.866 61 96V52Z" fill="white"/>
    <path d="M418 52C418 48.134 421.134 45 425 45V45C428.866 45 432 48.134 432 52V96C432 99.866 428.866 103 425 103V103C421.134 103 418 99.866 418 96V52Z" fill="#FF3E55"/>
    <path fill-rule="evenodd" clip-rule="evenodd" d="M40 7.5C40 3.91014 42.9102 1 46.5 1C50.0898 1 53 3.91016 53 7.5V96.5C53 100.09 50.0898 103 46.5 103C42.9102 103 40 100.09 40 96.5V59H14V98C14 101.866 10.866 105 7 105C3.13403 105 0 101.866 0 98V53V10C0 6.134 3.13403 3 7 3C10.866 3 14 6.134 14 10V47H40V7.5Z" fill="white"/>
    <path fill-rule="evenodd" clip-rule="evenodd" d="M255.834 10.2786C256.961 7.18129 260.198 5.46151 263.331 6.15126C266.068 6.05734 268.673 7.71336 269.661 10.4261L300.101 94.0587C301.328 97.4321 299.589 101.162 296.216 102.39C292.842 103.618 289.112 101.878 287.885 98.505L279.445 75.3181H245.995L237.61 98.3575C236.382 101.731 232.652 103.47 229.279 102.242C225.905 101.015 224.166 97.2846 225.394 93.9113L255.834 10.2786ZM250.363 63.3181H275.078L262.72 29.3668L250.363 63.3181Z" fill="#FF3E55"/>
    <ellipse cx="68" cy="31.5" rx="7" ry="6.5" fill="#FF3E55"/>
    <ellipse cx="425" cy="33.5" rx="7" ry="6.5" fill="#FF3E55"/>
    <path fill-rule="evenodd" clip-rule="evenodd" d="M97.7335 97.8361C97.7392 97.7248 97.7421 97.6127 97.7421 97.5C97.7421 93.9101 94.8319 91 91.2421 91C87.6522 91 84.7421 93.9101 84.7421 97.5C84.7421 99.1081 85.3261 100.58 86.2935 101.715C86.1146 102.087 85.9408 102.457 85.771 102.819C85.5193 103.355 85.1813 103.872 84.7535 104.386C83.5902 105.783 82.431 107.501 83.3076 109.093C85.4611 113.004 92.5539 114.464 95.5786 108.033C97.507 103.932 97.8715 100.575 97.7846 98.3162C97.7782 98.1517 97.761 97.9916 97.7335 97.8361Z" fill="white"/>
    <path fill-rule="evenodd" clip-rule="evenodd" d="M152 52.5C152 47.8587 153.844 43.4075 157.126 40.1256C160.408 36.8437 164.859 35 169.5 35C173.522 35 177.401 36.3844 180.5 38.8893C183.599 36.3844 187.478 35 191.5 35C196.141 35 200.592 36.8437 203.874 40.1256C207.156 43.4075 209 47.8587 209 52.5H208.924C208.974 52.826 209 53.1599 209 53.5V95.5C209 99.0899 206.09 102 202.5 102C198.91 102 196 99.0899 196 95.5V53.5C196 53.1599 196.026 52.826 196.076 52.5H195.962C195.962 51.3167 195.492 50.1819 194.655 49.3451C193.818 48.5084 192.683 48.0384 191.5 48.0384C190.317 48.0384 189.182 48.5084 188.345 49.3451C187.508 50.1819 187.038 51.3167 187.038 52.5H187H186.924C186.974 52.826 187 53.1599 187 53.5V95.5C187 99.0899 184.09 102 180.5 102C176.91 102 174 99.0899 174 95.5V53.5C174 53.1599 174.026 52.826 174.076 52.5H174H173.962C173.962 51.3167 173.492 50.1819 172.655 49.3451C171.818 48.5084 170.683 48.0384 169.5 48.0384C168.317 48.0384 167.182 48.5084 166.345 49.3451C165.508 50.1819 165.038 51.3167 165.038 52.5H164.924C164.974 52.826 165 53.1599 165 53.5V95.5C165 99.0899 162.09 102 158.5 102C154.91 102 152 99.0899 152 95.5V53.5C152 53.1599 152.026 52.826 152.076 52.5H152Z" fill="white"/>
    <rect x="138.636" y="25" width="8" height="15" rx="4" transform="rotate(14.03 138.636 25)" fill="white"/>
    <path fill-rule="evenodd" clip-rule="evenodd" d="M312.5 1C308.91 1 306 3.91015 306 7.5V96.5C306 100.09 308.91 103 312.5 103C316.09 103 319 100.09 319 96.5V95.3494C323.547 100.066 329.931 103 337 103C350.807 103 362 91.8071 362 78C362 64.1929 350.807 53 337 53C329.931 53 323.547 55.934 319 60.6506V7.5C319 3.91015 316.09 1 312.5 1ZM352 78C352 86.2843 345.284 93 337 93C328.716 93 322 86.2843 322 78C322 69.7157 328.716 63 337 63C345.284 63 352 69.7157 352 78Z" fill="#FF3E55"/>
    <path fill-rule="evenodd" clip-rule="evenodd" d="M368 7C368 3.134 371.134 0 375 0C378.866 0 382 3.134 382 7V46.2877C384.377 45.444 386.915 45 389.5 45C395.202 45 400.671 47.1598 404.703 51.0043C408.423 54.5517 410.639 59.2652 410.96 64.2439C410.986 64.4922 411 64.7445 411 65V65.5V95C411 98.866 407.866 102 404 102C400.134 102 397 98.866 397 95V65.5H396.962C396.962 63.6129 396.176 61.8032 394.777 60.4688C393.377 59.1345 391.479 58.3848 389.5 58.3848C387.521 58.3848 385.623 59.1345 384.223 60.4688C382.824 61.8032 382.038 63.6129 382.038 65.5H382V95C382 98.866 378.866 102 375 102C371.134 102 368 98.866 368 95V65.5V7Z" fill="#FF3E55"/>
    <path fill-rule="evenodd" clip-rule="evenodd" d="M494 8C494 4.13401 497.134 1 501 1C504.866 1 508 4.13401 508 8V47.2877C510.377 46.444 512.915 46 515.5 46C521.202 46 526.671 48.1598 530.703 52.0043C534.423 55.5517 536.639 60.2652 536.96 65.2439C536.986 65.4922 537 65.7445 537 66V66.5V96C537 99.866 533.866 103 530 103C526.134 103 523 99.866 523 96V66.5H522.962C522.962 64.6129 522.176 62.8032 520.777 61.4688C519.377 60.1345 517.479 59.3848 515.5 59.3848C513.521 59.3848 511.623 60.1345 510.223 61.4688C508.824 62.8032 508.038 64.6129 508.038 66.5H508V96C508 99.866 504.866 103 501 103C497.134 103 494 99.866 494 96V66.5V8Z" fill="#FF3E55"/>
    <path fill-rule="evenodd" clip-rule="evenodd" d="M599.982 69.2655C599.364 63.0773 596.983 57.2148 593.131 52.4862C588.722 47.0735 582.667 43.4929 576.03 42.3736C569.392 41.2544 562.598 42.6681 556.841 46.3664C551.083 50.0647 546.731 55.8108 544.549 62.5951C542.366 69.3793 542.494 76.7675 544.909 83.4613C547.324 90.1551 551.871 95.7261 557.753 99.1954C563.634 102.665 570.473 103.81 577.067 102.431C583.661 101.051 589.588 97.2345 593.808 91.652L583.801 83.0336C581.481 86.104 578.221 88.203 574.594 88.9618C570.967 89.7206 567.206 89.0905 563.971 87.1825C560.737 85.2744 558.235 82.2103 556.907 78.5287C556.783 78.1846 556.67 77.8372 556.568 77.487H593.838C597.376 77.487 600.243 74.6194 600.243 71.082C600.243 70.451 600.152 69.8414 599.982 69.2655ZM585.472 64.6771H557.671C559 61.9841 561 59.7128 563.47 58.1265C566.636 56.0925 570.373 55.3149 574.023 55.9305C577.674 56.5461 581.004 58.5154 583.429 61.4924C584.228 62.4732 584.912 63.5427 585.472 64.6771Z" fill="#FF3E55"/>
    <path fill-rule="evenodd" clip-rule="evenodd" d="M459.887 47.0002C459.887 47.0003 459.887 47.0004 459.886 47.0004C457.306 47.0156 454.752 47.431 452.367 48.2244C449.936 49.0327 447.728 50.2175 445.868 51.7111C444.007 53.2048 442.532 54.9779 441.525 56.9294C440.518 58.8809 440 60.9725 440 63.0848C440 65.1971 440.518 67.2887 441.525 69.2402C442.532 71.1917 444.007 72.9649 445.868 74.4585C447.728 75.9521 449.936 77.1369 452.367 77.9453C454.29 78.585 456.323 78.9791 458.392 79.1156C458.407 79.1166 458.419 79.1281 458.421 79.143V79.143C458.423 79.1584 458.436 79.17 458.451 79.1705L465.856 79.4094C465.871 79.4099 465.882 79.4215 465.882 79.4358V79.4358C465.882 79.4503 465.894 79.4621 465.908 79.4622C466.952 79.4649 467.984 79.6312 468.948 79.9519C469.921 80.2752 470.804 80.7491 471.548 81.3466C472.292 81.944 472.882 82.6533 473.285 83.4339C473.688 84.2145 473.895 85.0511 473.895 85.8961C473.895 86.741 473.688 87.5776 473.285 88.3582C472.882 89.1388 472.292 89.8481 471.548 90.4455C470.804 91.043 469.921 91.5169 468.948 91.8402C467.976 92.1636 466.934 92.33 465.882 92.33H453.014C450.349 92.33 448.189 94.4904 448.189 97.1554V97.1554C448.189 99.8205 450.349 101.981 453.014 101.981H465.882H467.18C467.19 101.981 467.198 101.973 467.198 101.963V101.963C467.198 101.954 467.205 101.946 467.215 101.945C469.39 101.829 471.529 101.428 473.548 100.757C475.979 99.9482 478.187 98.7634 480.047 97.2698C481.908 95.7761 483.383 94.003 484.39 92.0515C485.397 90.1 485.915 88.0084 485.915 85.8961C485.915 83.7838 485.397 81.6922 484.39 79.7407C483.383 77.7892 481.908 76.016 480.047 74.5224C478.187 73.0287 475.979 71.844 473.548 71.0356C471.53 70.3643 469.391 69.9635 467.216 69.847C467.207 69.8464 467.199 69.8384 467.199 69.8286V69.8286C467.198 69.8188 467.19 69.8108 467.181 69.8102L458.611 69.3134C458.081 69.2827 457.551 69.2179 457.045 69.0549C457.019 69.0464 456.993 69.0377 456.966 69.029C455.994 68.7057 455.111 68.2318 454.367 67.6343C453.623 67.0369 453.032 66.3276 452.63 65.547C452.227 64.7664 452.02 63.9298 452.02 63.0848C452.02 62.2399 452.227 61.4033 452.63 60.6227C453.032 59.8421 453.623 59.1328 454.367 58.5354C455.111 57.9379 455.994 57.464 456.966 57.1407C457.937 56.8178 458.978 56.6514 460.029 56.6509L460.033 56.6509L474.071 56.6509C476.736 56.6509 478.896 54.4905 478.896 51.8255V51.8255C478.896 49.1604 476.736 47 474.071 47H460.033H459.887C459.887 47 459.887 47.0001 459.887 47.0002V47.0002Z" fill="#FF3E55"/>
</svg>
