<svg width="423" height="522" viewBox="0 0 423 522" fill="none" xmlns="http://www.w3.org/2000/svg">
<g id="ipod">
<path id="XMLID 106" opacity="0.23" d="M375.275 240.018C375.275 233.946 380.238 228.983 386.311 228.983H387.813V201.818H376.581C366.59 201.818 358.493 209.915 358.493 219.906V256.148C358.493 257.649 359.734 258.89 361.236 258.89H372.663C374.165 258.89 375.406 257.649 375.406 256.148V240.018H375.275Z" fill="black"/>
<path id="XMLID 105" opacity="0.23" d="M396.498 206.977H387.813V224.934H396.498V206.977Z" fill="black"/>
<path id="XMLID 104" opacity="0.23" d="M404.334 234.011H400.35C398.196 234.011 396.432 232.248 396.432 230.093V201.753C396.432 199.598 398.196 197.835 400.35 197.835H404.334C412.888 197.835 419.81 204.757 419.81 213.311V218.47C419.81 227.089 412.888 234.011 404.334 234.011Z" fill="black"/>
<path id="XMLID 103" opacity="0.21" d="M229.656 479.735C229.656 485.808 234.619 490.77 240.692 490.77H242.194V517.935H230.962C220.971 517.935 212.874 509.838 212.874 499.847V463.606C212.874 462.104 214.115 460.863 215.617 460.863H227.044C228.546 460.863 229.787 462.104 229.787 463.606V479.735H229.656Z" fill="black"/>
<path id="XMLID 102" opacity="0.21" d="M250.879 494.819H242.194V512.777H250.879V494.819Z" fill="black"/>
<path id="XMLID 101" opacity="0.21" d="M258.715 485.742H254.731C252.577 485.742 250.813 487.506 250.813 489.66V518.001C250.813 520.155 252.577 521.919 254.731 521.919H258.715C267.269 521.919 274.191 514.997 274.191 506.442V501.284C274.191 492.664 267.269 485.742 258.715 485.742Z" fill="black"/>
<g id="XMLID 99" opacity="0.23">
<path id="XMLID 100" opacity="0.23" d="M222.996 465.238H219.078V413.847C219.078 393.212 235.86 376.43 256.495 376.43C265.441 376.43 273.864 372.904 280.198 366.57C286.533 360.236 289.993 351.812 289.993 342.801L289.928 318.77H293.846L293.911 342.801C293.911 352.792 290.059 362.26 282.941 369.312C275.954 376.43 266.551 380.348 256.495 380.348C238.015 380.348 222.996 395.367 222.996 413.847V465.238Z" fill="black"/>
</g>
<g id="XMLID 97" opacity="0.23">
<path id="XMLID 98" opacity="0.23" d="M329.761 370.814C307.951 370.814 290.255 353.118 290.255 331.308V319.227C290.255 318.117 291.104 317.268 292.214 317.268C293.324 317.268 294.173 318.117 294.173 319.227V331.308C294.173 350.963 310.106 366.896 329.761 366.896C349.416 366.896 365.35 350.963 365.35 331.308V258.498C365.35 257.388 366.199 256.539 367.309 256.539C368.419 256.539 369.268 257.388 369.268 258.498V331.308C369.268 353.053 351.571 370.814 329.761 370.814Z" fill="black"/>
</g>
<g id="XMLID 94">
<path id="XMLID 95" d="M222.996 458.055H219.078V406.664C219.078 386.029 235.86 369.247 256.495 369.247C265.441 369.247 273.864 365.721 280.198 359.387C286.533 353.053 289.993 344.629 289.993 335.618L289.928 296.568H293.846L293.911 335.618C293.911 345.609 290.059 355.077 282.941 362.13C275.954 369.247 266.551 373.165 256.495 373.165C238.015 373.165 222.996 388.184 222.996 406.664V458.055Z" fill="#EEF2F4"/>
</g>
<g id="XMLID 71">
<path id="XMLID 96" d="M222.996 458.055H219.078V406.664C219.078 386.029 235.86 369.247 256.495 369.247C265.441 369.247 273.864 365.721 280.198 359.387C286.533 353.053 289.993 344.629 289.993 335.618L289.928 296.568H293.846L293.911 335.618C293.911 345.609 290.059 355.077 282.941 362.13C275.954 369.247 266.551 373.165 256.495 373.165C238.015 373.165 222.996 388.184 222.996 406.664V458.055Z" stroke="#000F5F" stroke-width="3" stroke-miterlimit="10" stroke-linecap="round" stroke-linejoin="round"/>
</g>
<g id="XMLID 83">
<path id="XMLID 93" d="M329.761 363.37C307.951 363.37 290.255 345.674 290.255 323.864V296.764C290.255 295.654 291.104 294.805 292.214 294.805C293.324 294.805 294.173 295.654 294.173 296.764V323.864C294.173 343.519 310.106 359.452 329.761 359.452C349.416 359.452 365.35 343.519 365.35 323.864V251.054C365.35 249.944 366.199 249.095 367.309 249.095C368.419 249.095 369.268 249.944 369.268 251.054V323.864C369.268 345.674 351.571 363.37 329.761 363.37Z" fill="#EEF2F4"/>
</g>
<g id="XMLID 75">
<path id="XMLID 92" d="M329.761 363.37C307.951 363.37 290.255 345.674 290.255 323.864V296.764C290.255 295.654 291.104 294.805 292.214 294.805C293.324 294.805 294.173 295.654 294.173 296.764V323.864C294.173 343.519 310.106 359.452 329.761 359.452C349.416 359.452 365.35 343.519 365.35 323.864V251.054C365.35 249.944 366.199 249.095 367.309 249.095C368.419 249.095 369.268 249.944 369.268 251.054V323.864C369.268 345.674 351.571 363.37 329.761 363.37Z" stroke="#000F5F" stroke-width="3" stroke-miterlimit="10" stroke-linecap="round" stroke-linejoin="round"/>
</g>
<g id="XMLID 63" opacity="0.23">
<path id="XMLID 65" opacity="0.23" d="M292.018 274.105C290.908 274.105 290.059 273.256 290.059 272.146V79.3152C290.059 63.5779 277.26 50.7791 261.523 50.7791C245.785 50.7791 232.987 63.5779 232.987 79.3152V147.488C232.987 165.119 218.621 179.485 200.99 179.485H200.141C191.586 179.485 183.554 176.155 177.547 170.147C171.539 164.14 168.144 155.977 168.144 147.423V41.4412C168.144 25.7039 155.345 12.9051 139.608 12.9051C123.87 12.9051 111.071 25.7039 111.071 41.4412V177.461C111.071 178.571 110.223 179.42 109.112 179.42C108.002 179.42 107.153 178.571 107.153 177.461V41.4412C107.153 23.549 121.715 8.98706 139.608 8.98706C157.5 8.98706 172.062 23.549 172.062 41.4412V147.488C172.062 154.998 175 162.05 180.289 167.34C185.579 172.629 192.631 175.567 200.141 175.567H201.055C216.531 175.567 229.134 162.964 229.134 147.488V79.3152C229.134 61.423 243.696 46.8611 261.588 46.8611C279.48 46.8611 294.042 61.423 294.042 79.3152V272.146C293.977 273.191 293.128 274.105 292.018 274.105Z" fill="black"/>
</g>
<g id="XMLID 59">
<path id="XMLID 64" d="M292.214 267.118C291.104 267.118 290.255 266.269 290.255 265.159V72.3281C290.255 56.5908 277.456 43.792 261.719 43.792C245.981 43.792 233.182 56.5908 233.182 72.3281V140.501C233.182 158.132 218.816 172.498 201.185 172.498H200.271C191.717 172.498 183.685 169.168 177.677 163.16C171.67 157.153 168.34 149.121 168.34 140.567V34.4541C168.34 18.7168 155.541 5.918 139.803 5.918C124.066 5.918 111.333 18.7168 111.333 34.4541V170.474C111.333 171.584 110.484 172.433 109.374 172.433C108.264 172.433 107.415 171.584 107.415 170.474V34.4541C107.415 16.5619 121.977 2 139.869 2C157.761 2 172.323 16.5619 172.323 34.4541V140.501C172.323 148.011 175.261 155.063 180.551 160.352C185.84 165.642 192.892 168.58 200.402 168.58H201.316C216.792 168.58 229.395 155.977 229.395 140.501V72.3281C229.395 54.4359 243.957 39.874 261.849 39.874C279.741 39.874 294.303 54.4359 294.303 72.3281V265.159C294.173 266.269 293.324 267.118 292.214 267.118Z" fill="#EEF2F4"/>
</g>
<g id="XMLID 62">
<path id="XMLID 68" d="M292.214 267.118C291.104 267.118 290.255 266.269 290.255 265.159V72.3281C290.255 56.5908 277.456 43.792 261.719 43.792C245.981 43.792 233.182 56.5908 233.182 72.3281V140.501C233.182 158.132 218.816 172.498 201.185 172.498H200.271C191.717 172.498 183.685 169.168 177.677 163.16C171.67 157.153 168.34 149.121 168.34 140.567V34.4541C168.34 18.7168 155.541 5.918 139.803 5.918C124.066 5.918 111.333 18.7168 111.333 34.4541V170.474C111.333 171.584 110.484 172.433 109.374 172.433C108.264 172.433 107.415 171.584 107.415 170.474V34.4541C107.415 16.5619 121.977 2 139.869 2C157.761 2 172.323 16.5619 172.323 34.4541V140.501C172.323 148.011 175.261 155.063 180.551 160.352C185.84 165.642 192.892 168.58 200.402 168.58H201.316C216.792 168.58 229.395 155.977 229.395 140.501V72.3281C229.395 54.4359 243.957 39.874 261.849 39.874C279.741 39.874 294.303 54.4359 294.303 72.3281V265.159C294.173 266.269 293.324 267.118 292.214 267.118Z" stroke="#000F5F" stroke-width="3" stroke-miterlimit="10" stroke-linecap="round" stroke-linejoin="round"/>
</g>
<path id="XMLID 58" opacity="0.23" d="M121.65 168.319H105.717V189.411H121.65V168.319Z" fill="black"/>
<path id="XMLID 31" d="M117.406 165.707H101.472V186.799H117.406V165.707Z" fill="#FDE1FF"/>
<path id="XMLID 52" d="M117.406 165.707H101.472V174.196H117.406V165.707Z" fill="white"/>
<path id="XMLID 53" d="M117.406 165.707H101.472V174.196H117.406V165.707Z" stroke="#000F5F" stroke-width="3" stroke-miterlimit="10" stroke-linecap="round" stroke-linejoin="round"/>
<path id="XMLID 29" d="M117.406 165.707H101.472V186.799H117.406V165.707Z" stroke="#000F5F" stroke-width="6" stroke-miterlimit="10" stroke-linecap="round" stroke-linejoin="round"/>
<path id="XMLID 11" opacity="0.23" d="M135.298 412.737H19.8473C12.599 412.737 6.72205 406.86 6.72205 399.612V213.18C6.72205 205.932 12.599 200.055 19.8473 200.055H135.298C142.546 200.055 148.423 205.932 148.423 213.18V399.546C148.423 406.86 142.546 412.737 135.298 412.737Z" fill="black"/>
<path id="XMLID 33" d="M131.576 399.22H16.1905C8.94219 399.22 3.06519 393.343 3.06519 386.095V199.728C3.06519 192.48 8.94219 186.603 16.1905 186.603H131.576C138.824 186.603 144.701 192.48 144.701 199.728V386.095C144.701 393.343 138.824 399.22 131.576 399.22Z" fill="#EEF2F4"/>
<path id="XMLID 17" d="M131.576 399.22H16.1905C8.94219 399.22 3.06519 393.343 3.06519 386.095V199.728C3.06519 192.48 8.94219 186.603 16.1905 186.603H131.576C138.824 186.603 144.701 192.48 144.701 199.728V386.095C144.701 393.343 138.824 399.22 131.576 399.22Z" fill="#EEF2F4"/>
<g id="XMLID 20" opacity="0.76">
<g id="XMLID 56" opacity="0.76">
<path id="XMLID 57" opacity="0.76" d="M9.3341 386.095V199.728C9.3341 192.48 15.2111 186.603 22.4594 186.603H16.1253C8.87699 186.603 3 192.48 3 199.728V386.095C3 393.343 8.87699 399.22 16.1253 399.22H22.4594C15.2111 399.22 9.3341 393.343 9.3341 386.095Z" fill="white"/>
</g>
</g>
<g id="XMLID 18" opacity="0.1">
<g id="XMLID 119" opacity="0.1">
<path id="XMLID 120" opacity="0.1" d="M138.367 386.095V199.728C138.367 192.48 132.49 186.603 125.242 186.603H131.576C138.824 186.603 144.701 192.48 144.701 199.728V386.095C144.701 393.343 138.824 399.22 131.576 399.22H125.242C132.49 399.22 138.367 393.343 138.367 386.095Z" fill="black"/>
</g>
</g>
<g id="XMLID 22" opacity="0.04">
<path id="XMLID 32" opacity="0.04" d="M131.576 390.731H16.1905C8.94219 390.731 3.06519 384.854 3.06519 377.606V386.095C3.06519 393.343 8.94219 399.22 16.1905 399.22H131.576C138.824 399.22 144.701 393.343 144.701 386.095V377.606C144.701 384.854 138.824 390.731 131.576 390.731Z" fill="black"/>
</g>
<g id="XMLID 19" opacity="0.38">
<path id="XMLID 21" opacity="0.38" d="M131.576 195.092H16.1905C8.94219 195.092 3.06519 200.969 3.06519 208.217V199.728C3.06519 192.48 8.94219 186.603 16.1905 186.603H131.576C138.824 186.603 144.701 192.48 144.701 199.728V208.217C144.701 200.969 138.824 195.092 131.576 195.092Z" fill="white"/>
</g>
<path id="XMLID 2" d="M131.576 399.22H16.1905C8.94219 399.22 3.06519 393.343 3.06519 386.095V199.728C3.06519 192.48 8.94219 186.603 16.1905 186.603H131.576C138.824 186.603 144.701 192.48 144.701 199.728V386.095C144.701 393.343 138.824 399.22 131.576 399.22Z" stroke="#000F5F" stroke-width="6" stroke-miterlimit="10"/>
<path id="XMLID 3" d="M113.879 280.831H33.8869C29.4465 280.831 25.7897 277.239 25.7897 272.734V220.037C25.7897 215.596 29.3812 211.939 33.8869 211.939H113.879C118.32 211.939 121.977 215.531 121.977 220.037V272.734C121.911 277.239 118.32 280.831 113.879 280.831Z" fill="#B296A3"/>
<path id="XMLID 8" opacity="0.2" d="M25.7897 243.349L57.1337 211.874H53.2157L25.7897 239.431V243.349Z" fill="#EEF2F4"/>
<path id="XMLID 9" opacity="0.2" d="M25.7897 254.515L68.3653 211.874H61.6394L25.7897 247.855V254.515Z" fill="#EEF2F4"/>
<path id="XMLID 1" d="M113.879 280.831H33.8869C29.4465 280.831 25.7897 277.239 25.7897 272.734V220.037C25.7897 215.596 29.3812 211.939 33.8869 211.939H113.879C118.32 211.939 121.977 215.531 121.977 220.037V272.734C121.911 277.239 118.32 280.831 113.879 280.831Z" stroke="#000F5F" stroke-width="3" stroke-miterlimit="10"/>
<path id="XMLID 77" d="M229.656 471.246C229.656 477.319 234.619 482.281 240.692 482.281H242.194V509.446H230.962C220.971 509.446 212.874 501.349 212.874 491.358V455.117C212.874 453.615 214.115 452.374 215.617 452.374H227.044C228.546 452.374 229.787 453.615 229.787 455.117V471.246H229.656Z" fill="#EEF2F4"/>
<path id="XMLID 84" opacity="0.1" d="M240.692 482.151C234.554 482.151 229.526 477.123 229.526 470.985V454.66C229.526 453.223 228.35 452.113 226.979 452.113H224.955V457.337V475.36C224.955 479.67 227.305 483.457 230.766 485.481C234.815 487.832 237.362 492.077 237.362 496.713V509.512H241.933V482.086H240.692V482.151Z" fill="black"/>
<path id="XMLID 74" d="M229.656 471.246C229.656 477.319 234.619 482.281 240.692 482.281H242.194V509.446H230.962C220.971 509.446 212.874 501.349 212.874 491.358V455.117C212.874 453.615 214.115 452.374 215.617 452.374H227.044C228.546 452.374 229.787 453.615 229.787 455.117V471.246H229.656Z" stroke="#000F5F" stroke-width="6" stroke-miterlimit="10" stroke-linecap="round" stroke-linejoin="round"/>
<path id="XMLID 81" d="M250.879 486.33H242.194V504.288H250.879V486.33Z" fill="#D6DADC"/>
<path id="XMLID 73" d="M250.879 486.33H242.194V504.288H250.879V486.33Z" stroke="#000F5F" stroke-width="6" stroke-miterlimit="10" stroke-linecap="round" stroke-linejoin="round"/>
<path id="XMLID 72" d="M258.715 477.253H254.731C252.577 477.253 250.813 479.017 250.813 481.171V509.512C250.813 511.666 252.577 513.43 254.731 513.43H258.715C267.269 513.43 274.191 506.508 274.191 497.953V492.795C274.191 484.175 267.269 477.253 258.715 477.253Z" stroke="#000F5F" stroke-width="6" stroke-miterlimit="10" stroke-linecap="round" stroke-linejoin="round"/>
<path id="XMLID 79" d="M258.715 477.253H254.731C252.577 477.253 250.813 479.017 250.813 481.171V509.512C250.813 511.666 252.577 513.43 254.731 513.43H258.715C267.269 513.43 274.191 506.508 274.191 497.953V492.795C274.191 484.175 267.269 477.253 258.715 477.253Z" fill="#19005F"/>
<path id="XMLID 82" d="M229.656 471.246C229.656 477.319 234.619 482.281 240.692 482.281H242.194V509.446H230.962C220.971 509.446 212.874 501.349 212.874 491.358V455.117C212.874 453.615 214.115 452.374 215.617 452.374H227.044C228.546 452.374 229.787 453.615 229.787 455.117V471.246H229.656Z" fill="#EEF2F4"/>
<path id="XMLID 80" opacity="0.1" d="M240.692 482.151C234.554 482.151 229.526 477.123 229.526 470.985V454.66C229.526 453.223 228.35 452.113 226.979 452.113H224.955V457.337V475.36C224.955 479.67 227.305 483.457 230.766 485.481C234.815 487.832 237.362 492.077 237.362 496.713V509.512H241.933V482.086H240.692V482.151Z" fill="black"/>
<path id="XMLID 78" d="M229.656 471.246C229.656 477.319 234.619 482.281 240.692 482.281H242.194V509.446H230.962C220.971 509.446 212.874 501.349 212.874 491.358V455.117C212.874 453.615 214.115 452.374 215.617 452.374H227.044C228.546 452.374 229.787 453.615 229.787 455.117V471.246H229.656Z" stroke="#000F5F" stroke-width="6" stroke-miterlimit="10" stroke-linecap="round" stroke-linejoin="round"/>
<path id="XMLID 76" d="M250.879 486.33H242.194V504.288H250.879V486.33Z" fill="#D6DADC"/>
<path id="XMLID 26" d="M250.879 486.33H242.194V504.288H250.879V486.33Z" stroke="#000F5F" stroke-width="6" stroke-miterlimit="10" stroke-linecap="round" stroke-linejoin="round"/>
<path id="XMLID 25" d="M258.715 477.253H254.731C252.577 477.253 250.813 479.017 250.813 481.171V509.512C250.813 511.666 252.577 513.43 254.731 513.43H258.715C267.269 513.43 274.191 506.508 274.191 497.953V492.795C274.191 484.175 267.269 477.253 258.715 477.253Z" stroke="#000F5F" stroke-width="6" stroke-miterlimit="10" stroke-linecap="round" stroke-linejoin="round"/>
<path id="XMLID 24" d="M258.715 477.253H254.731C252.577 477.253 250.813 479.017 250.813 481.171V509.512C250.813 511.666 252.577 513.43 254.731 513.43H258.715C267.269 513.43 274.191 506.508 274.191 497.953V492.795C274.191 484.175 267.269 477.253 258.715 477.253Z" fill="#19005F"/>
<path id="XMLID 91" d="M375.275 232.182C375.275 226.11 380.238 221.147 386.311 221.147H387.813V193.982H376.581C366.59 193.982 358.493 202.079 358.493 212.07V248.312C358.493 249.813 359.734 251.054 361.236 251.054H372.663C374.165 251.054 375.406 249.813 375.406 248.312V232.182H375.275Z" fill="#EEF2F4"/>
<g id="XMLID 108" opacity="0.1">
<path id="XMLID 109" opacity="0.1" d="M371.227 234.533V249.748H372.598C374.1 249.748 375.145 248.507 375.145 247.006V230.877C375.145 228.722 375.732 226.697 376.842 225C373.512 226.893 371.227 230.419 371.227 234.533Z" fill="black"/>
<path id="XMLID 110" opacity="0.1" d="M376.581 194.243C370.77 194.243 365.611 196.79 362.281 201.034C365.219 198.945 368.811 197.508 372.729 197.508C378.736 197.508 383.634 202.406 383.634 208.413V221.408C384.94 221.212 385.527 221.016 386.311 221.016H387.552V194.243H376.581Z" fill="black"/>
</g>
<path id="XMLID 89" d="M375.275 232.182C375.275 226.11 380.238 221.147 386.311 221.147H387.813V193.982H376.581C366.59 193.982 358.493 202.079 358.493 212.07V248.312C358.493 249.813 359.734 251.054 361.236 251.054H372.663C374.165 251.054 375.406 249.813 375.406 248.312V232.182H375.275Z" stroke="#000F5F" stroke-width="6" stroke-miterlimit="10" stroke-linecap="round" stroke-linejoin="round"/>
<path id="XMLID 88" d="M396.498 199.141H387.813V217.098H396.498V199.141Z" fill="#D6DADC"/>
<path id="XMLID 87" d="M396.498 199.141H387.813V217.098H396.498V199.141Z" stroke="#000F5F" stroke-width="6" stroke-miterlimit="10" stroke-linecap="round" stroke-linejoin="round"/>
<path id="XMLID 86" d="M404.334 226.175H400.35C398.196 226.175 396.432 224.412 396.432 222.257V193.917C396.432 191.762 398.196 189.999 400.35 189.999H404.334C412.888 189.999 419.81 196.92 419.81 205.475V210.633C419.81 219.253 412.888 226.175 404.334 226.175Z" stroke="#000F5F" stroke-width="6" stroke-miterlimit="10" stroke-linecap="round" stroke-linejoin="round"/>
<path id="XMLID 85" d="M404.334 226.175H400.35C398.196 226.175 396.432 224.412 396.432 222.257V193.917C396.432 191.762 398.196 189.999 400.35 189.999H404.334C412.888 189.999 419.81 196.92 419.81 205.475V210.633C419.81 219.253 412.888 226.175 404.334 226.175Z" fill="#19005F"/>
<path id="XMLID 48" d="M73.981 371.076C93.8163 371.076 109.896 354.996 109.896 335.161C109.896 315.325 93.8163 299.246 73.981 299.246C54.1457 299.246 38.066 315.325 38.066 335.161C38.066 354.996 54.1457 371.076 73.981 371.076Z" fill="#D7F0F4"/>
<path id="XMLID 30" opacity="0.63" d="M73.981 305.776C92.7221 305.776 108.068 320.142 109.765 338.426C109.831 337.381 109.896 336.271 109.896 335.161C109.896 315.309 93.8322 299.246 73.981 299.246C54.1298 299.246 38.066 315.309 38.066 335.161C38.066 336.271 38.1313 337.381 38.1966 338.426C39.8944 320.076 55.3052 305.776 73.981 305.776Z" fill="#EEF2F4"/>
<path id="XMLID 50" d="M73.9811 346.262C80.112 346.262 85.0821 341.292 85.0821 335.161C85.0821 329.03 80.112 324.06 73.9811 324.06C67.8502 324.06 62.8801 329.03 62.8801 335.161C62.8801 341.292 67.8502 346.262 73.9811 346.262Z" fill="#EEF2F4"/>
<path id="XMLID 4" d="M73.981 371.076C93.8163 371.076 109.896 354.996 109.896 335.161C109.896 315.325 93.8163 299.246 73.981 299.246C54.1457 299.246 38.066 315.325 38.066 335.161C38.066 354.996 54.1457 371.076 73.981 371.076Z" stroke="#000F5F" stroke-width="3" stroke-miterlimit="10"/>
<path id="XMLID 12" d="M73.9811 324.06C67.8429 324.06 62.8801 329.022 62.8801 335.161C62.8801 338.36 64.2514 341.234 66.4063 343.258C66.4063 343.193 66.4063 343.127 66.4063 342.997C66.4063 338.817 69.8019 335.356 74.0464 335.356C78.2909 335.356 81.6865 338.752 81.6865 342.997C81.6865 343.062 81.6865 343.127 81.6865 343.258C83.8414 341.234 85.2127 338.36 85.2127 335.161C85.0821 329.022 80.1193 324.06 73.9811 324.06Z" fill="#DBDCDD"/>
<path id="XMLID 5" d="M73.9811 346.262C80.112 346.262 85.0821 341.292 85.0821 335.161C85.0821 329.03 80.112 324.06 73.9811 324.06C67.8502 324.06 62.8801 329.03 62.8801 335.161C62.8801 341.292 67.8502 346.262 73.9811 346.262Z" stroke="#000F5F" stroke-width="3" stroke-miterlimit="10"/>
<g id="XMLID 6">
<path id="XMLID 10" d="M68.6917 314.656V312.044L67.7122 314.656H67.2551L66.2756 312.044V314.656H65.2308V310.673H66.6674L67.5163 312.893L68.3652 310.673H69.8018V314.656H68.6917Z" fill="#19005F"/>
<path id="XMLID 14" d="M70.3895 314.656V310.673H73.328V311.587H71.4343V312.175H73.2627V313.089H71.4343V313.742H73.328V314.656H70.3895Z" fill="#19005F"/>
<path id="XMLID 34" d="M76.5931 314.656L74.8953 312.371V314.656H73.8505V310.673H74.8953L76.5278 312.828V310.673H77.5726V314.656H76.5931Z" fill="#19005F"/>
<path id="XMLID 36" d="M78.2909 313.024V310.673H79.3357V313.024C79.3357 313.481 79.5969 313.807 80.1846 313.807C80.707 313.807 81.0335 313.481 81.0335 313.024V310.673H82.0783V313.024C82.0783 314.003 81.4906 314.722 80.1846 314.722C78.9439 314.722 78.2909 314.003 78.2909 313.024Z" fill="#19005F"/>
</g>
<g id="XMLID 40">
<path id="XMLID 7" d="M95.0076 332.549L98.9909 334.834L95.0076 337.12V332.549Z" fill="#19005F"/>
<path id="XMLID 39" d="M91.0896 332.549L95.0729 334.834L91.0896 337.12V332.549Z" fill="#19005F"/>
<path id="XMLID 38" d="M99.8785 337.264L99.8785 332.889L99.0296 332.889L99.0296 337.264L99.8785 337.264Z" fill="#19005F"/>
</g>
<g id="XMLID 41">
<path id="XMLID 47" d="M70.8467 356.057L74.83 358.342L70.8467 360.628V356.057Z" fill="#19005F"/>
<path id="XMLID 46" d="M75.5818 360.682L75.5818 356.307L74.7329 356.307L74.7329 360.682L75.5818 360.682Z" fill="#19005F"/>
<path id="XMLID 49" d="M77.0449 360.655L77.0449 356.28L76.196 356.28L76.196 360.655L77.0449 360.655Z" fill="#19005F"/>
</g>
<g id="XMLID 42">
<path id="XMLID 45" d="M52.5636 332.549L48.5803 334.834L52.5636 337.12V332.549Z" fill="#19005F"/>
<path id="XMLID 44" d="M56.4806 332.549L52.4973 334.834L56.4806 337.12V332.549Z" fill="#19005F"/>
<path id="XMLID 43" d="M48.7854 337.293L48.7854 332.918L47.9365 332.918L47.9365 337.293L48.7854 337.293Z" fill="#19005F"/>
</g>
<path id="XMLID 70" d="M296.785 263.461H287.316V296.438H296.785V263.461Z" fill="#EEF2F4"/>
<path id="XMLID 69" d="M296.785 263.461H287.316V296.438H296.785V263.461Z" stroke="#000F5F" stroke-width="3" stroke-miterlimit="10" stroke-linecap="round" stroke-linejoin="round"/>
</g>
</svg>
