<svg width="50" height="50" viewBox="0 0 50 50" fill="none" xmlns="http://www.w3.org/2000/svg">
<g id="linkedin">
<path id="Vector" fill-rule="evenodd" clip-rule="evenodd" d="M6.18317e-07 4.17728C6.18317e-07 3.0694 0.440105 2.00689 1.2235 1.2235C2.00689 0.44011 3.06939 5.56889e-06 4.17727 5.56889e-06H45.8182C46.3672 -0.000891139 46.911 0.106512 47.4185 0.316066C47.926 0.52562 48.3871 0.833209 48.7756 1.22122C49.164 1.60924 49.4721 2.07006 49.6822 2.5773C49.8923 3.08454 50.0003 3.62824 50 4.17728V45.8182C50.0006 46.3673 49.8929 46.9112 49.6831 47.4187C49.4733 47.9262 49.1655 48.3873 48.7773 48.7757C48.3891 49.1641 47.9281 49.4722 47.4208 49.6822C46.9134 49.8923 46.3696 50.0003 45.8204 50H4.17727C3.62851 50 3.08513 49.8919 2.57817 49.6818C2.07122 49.4717 1.61062 49.1638 1.22269 48.7757C0.834766 48.3876 0.527118 47.9268 0.317324 47.4197C0.10753 46.9127 -0.000297945 46.3692 6.18317e-07 45.8205V4.17728ZM19.7909 19.0636H26.5614V22.4636C27.5386 20.5091 30.0386 18.75 33.7955 18.75C40.9977 18.75 42.7045 22.6432 42.7045 29.7864V43.0182H35.4159V31.4136C35.4159 27.3455 34.4386 25.05 31.9568 25.05C28.5136 25.05 27.0818 27.525 27.0818 31.4136V43.0182H19.7909V19.0636ZM7.29091 42.7068H14.5818V18.75H7.29091V42.7045V42.7068ZM15.625 10.9364C15.6387 11.5606 15.5277 12.1813 15.2983 12.7621C15.0689 13.3428 14.7258 13.8719 14.2892 14.3183C13.8525 14.7646 13.3311 15.1193 12.7556 15.3614C12.18 15.6035 11.5619 15.7282 10.9375 15.7282C10.3131 15.7282 9.69497 15.6035 9.11942 15.3614C8.54387 15.1193 8.02247 14.7646 7.58584 14.3183C7.1492 13.8719 6.80612 13.3428 6.57673 12.7621C6.34734 12.1813 6.23625 11.5606 6.25 10.9364C6.27698 9.71104 6.78269 8.54498 7.65883 7.68793C8.53497 6.83087 9.71187 6.35095 10.9375 6.35095C12.1631 6.35095 13.34 6.83087 14.2162 7.68793C15.0923 8.54498 15.598 9.71104 15.625 10.9364V10.9364Z" fill="#EFEFEF"/>
</g>
</svg>
