<svg width="227" height="443" viewBox="0 0 227 443" fill="none" xmlns="http://www.w3.org/2000/svg">
<g id="Mouse">
<path id="XMLID 27" d="M142.736 172.995C142.736 172.995 142.736 153.44 142.736 138.131C142.736 128.205 134.723 120.191 124.796 120.191H27.322C17.3952 120.191 9.38202 112.178 9.38202 102.251C9.38202 92.3245 17.3952 84.3113 27.322 84.3113H198.589C208.516 84.3113 216.529 76.2981 216.529 66.3713C216.529 56.4445 208.516 48.4313 198.589 48.4313H160.676C150.749 48.4313 142.736 40.4181 142.736 30.4913C142.736 19.9665 142.736 8.78394 142.736 8.78394" stroke="#3991E2" stroke-width="6" stroke-miterlimit="10"/>
<path id="XMLID 39" d="M148.596 180.769H135.62C134.663 180.769 133.945 179.991 133.945 179.094V177.599C133.945 176.643 134.723 175.925 135.62 175.925H148.596C149.553 175.925 150.271 176.702 150.271 177.599V179.094C150.331 179.991 149.553 180.769 148.596 180.769Z" fill="#3991E2"/>
<path id="XMLID 38" d="M148.357 173.114H135.919C134.842 173.114 133.945 172.217 133.945 171.141V170.124C133.945 169.048 134.842 168.151 135.919 168.151H148.357C149.434 168.151 150.331 169.048 150.331 170.124V171.141C150.331 172.217 149.434 173.114 148.357 173.114Z" fill="#3991E2"/>
<path id="XMLID 37" d="M148.058 176.702H136.218C135.5 176.702 134.902 176.104 134.902 175.387V173.653C134.902 172.935 135.5 172.337 136.218 172.337H148.058C148.776 172.337 149.434 172.935 149.434 173.653V175.387C149.434 176.104 148.836 176.702 148.058 176.702Z" fill="#3991E2"/>
<path id="XMLID 35" d="M137.354 168.211C137.354 168.211 137.354 148.656 137.354 133.347C137.354 123.421 129.341 115.407 119.414 115.407H21.94C12.0132 115.407 4 107.394 4 97.4674C4 87.5406 12.0132 79.5274 21.94 79.5274H193.207C203.134 79.5274 211.147 71.5142 211.147 61.5874C211.147 51.6606 203.134 43.6474 193.207 43.6474H155.294C145.367 43.6474 137.354 35.6342 137.354 25.7074C137.354 15.1826 137.354 4 137.354 4" stroke="#2F3140" stroke-width="8" stroke-miterlimit="10" stroke-linecap="round" stroke-linejoin="round"/>
<path id="XMLID 26" d="M143.812 180.769H130.836C129.879 180.769 129.161 179.991 129.161 179.094V177.599C129.161 176.643 129.939 175.925 130.836 175.925H143.812C144.769 175.925 145.487 176.702 145.487 177.599V179.094C145.547 179.991 144.769 180.769 143.812 180.769Z" fill="#2F3140"/>
<path id="XMLID 33" d="M143.573 173.114H131.135C130.058 173.114 129.161 172.217 129.161 171.141V170.124C129.161 169.048 130.058 168.151 131.135 168.151H143.573C144.65 168.151 145.547 169.048 145.547 170.124V171.141C145.547 172.217 144.65 173.114 143.573 173.114Z" fill="#2F3140"/>
<path id="XMLID 31" d="M143.274 176.403H131.434C130.716 176.403 130.118 175.805 130.118 175.088V173.952C130.118 173.234 130.716 172.636 131.434 172.636H143.274C143.992 172.636 144.59 173.234 144.59 173.952V175.088C144.65 175.805 144.052 176.403 143.274 176.403Z" fill="#2F3140"/>
<path id="XMLID 36" d="M201.818 219.34C200.921 217.247 199.666 215.333 198.29 213.599C198.171 213.36 198.111 213.121 197.991 212.881C194.642 204.27 184.955 198.888 184.955 198.888C175.925 193.446 166.776 190.157 158.105 187.945C155.832 187.347 153.62 189.081 153.62 191.413V202.058H132.092V191.413C132.092 189.081 129.879 187.347 127.607 187.945C118.876 190.157 109.786 193.446 100.756 198.888C100.756 198.888 91.0688 204.21 87.72 212.881C84.6702 220.655 80.544 233.811 76.7766 249.599L71.2152 251.393C68.285 264.01 65.6538 278.123 63.9794 292.356L69.182 290.741C68.6438 294.867 68.2252 299.053 67.8664 303.239L62.7834 304.555C61.408 322.375 61.8864 339.837 65.5342 354.249L71.0358 355.086C71.0956 355.265 71.1554 355.504 71.2152 355.684C90.1718 401.072 100.936 427.922 109.128 433.424C117.201 438.866 133.527 440.181 142.915 439.822C152.184 440.241 168.271 439.344 176.463 434.022C177.181 433.663 177.54 433.244 178.197 432.826C186.988 427.324 197.274 405.677 215.273 365.611L218.861 357.597L218.921 357.418C232.436 315.02 211.087 241.346 201.818 219.34Z" fill="#3991E2" stroke="#3991E2" stroke-width="6" stroke-miterlimit="10"/>
<path id="XMLID 14" d="M72.77 291.219H66.192L57.222 293.551C55.8466 311.372 56.325 328.833 59.9728 343.245L77.7932 345.936L72.77 291.219Z" fill="#7C7C94"/>
<path id="XMLID 12" d="M72.77 291.219H66.192L57.222 293.551C55.8466 311.372 56.325 328.833 59.9728 343.245L77.7932 345.936L72.77 291.219Z" stroke="#2F3140" stroke-width="3" stroke-miterlimit="10" stroke-linecap="round" stroke-linejoin="round"/>
<path id="XMLID 15" d="M67.2086 278.661L74.9827 237.399L65.7136 240.389C62.7834 253.007 60.1522 267.12 58.4778 281.352L67.2086 278.661Z" fill="#7C7C94"/>
<path id="XMLID 24" d="M74.564 291.219H67.986L59.016 293.551C57.6406 311.372 58.119 328.833 61.7668 343.245L79.5872 345.936L74.564 291.219Z" fill="#6C6D81"/>
<path id="XMLID 20" d="M69.0026 278.661L76.7766 237.399L67.5076 240.389C64.5774 253.007 61.9462 267.12 60.2718 281.352L69.0026 278.661Z" fill="#6C6D81"/>
<path id="XMLID 13" d="M67.2086 278.661L74.9827 237.399L65.7136 240.389C62.7834 253.007 60.1522 267.12 58.4778 281.352L67.2086 278.661Z" stroke="#2F3140" stroke-width="3" stroke-miterlimit="10" stroke-linecap="round" stroke-linejoin="round"/>
<path id="XMLID 10" d="M196.317 208.396C192.549 199.426 182.383 193.925 181.307 193.386C177.958 191.533 174.49 189.858 170.902 188.363V423.317C171.619 422.959 172.397 422.54 173.055 422.121C181.845 416.62 191.712 394.554 209.772 354.547L213.36 346.534L213.42 346.355C226.934 304.076 205.586 230.462 196.317 208.396Z" fill="#565864"/>
<path id="XMLID 11" d="M196.317 208.396C192.549 199.426 182.383 193.925 181.307 193.386C177.958 191.533 174.49 189.858 170.902 188.363V423.317C171.619 422.959 172.397 422.54 173.055 422.121C181.845 416.62 191.712 394.554 209.772 354.547L213.36 346.534L213.42 346.355C226.934 304.076 205.586 230.462 196.317 208.396Z" stroke="#2F3140" stroke-width="3" stroke-miterlimit="10" stroke-linecap="round" stroke-linejoin="round"/>
<path id="XMLID 7" d="M192.49 201.938C189.141 193.327 179.453 187.945 179.453 187.945C170.423 182.503 161.274 179.214 152.603 177.001C150.331 176.403 148.118 178.137 148.118 180.47V191.174H126.59V180.529C126.59 178.197 124.377 176.463 122.105 177.061C113.374 179.274 104.285 182.563 95.2548 188.004C95.2548 188.004 85.5672 193.327 82.2184 201.998C72.8298 225.977 52.9164 301.864 65.6538 344.74C84.6104 390.128 95.3744 416.979 103.567 422.48C111.64 427.922 127.965 429.238 137.354 428.879C146.743 429.297 163.068 427.982 171.141 422.48C179.274 416.979 190.098 390.128 209.054 344.74C221.792 301.804 201.878 225.918 192.49 201.938Z" fill="#51566A"/>
<path id="XMLID 34" d="M189.559 237.399C189.559 221.791 188.244 206.722 185.732 192.609C182.443 189.619 179.453 187.945 179.453 187.945C170.423 182.503 161.274 179.214 152.603 177.001C150.331 176.403 148.118 178.137 148.118 180.47V191.174H126.59V180.529C126.59 178.197 124.377 176.463 122.105 177.061C113.374 179.274 104.285 182.563 95.2548 188.004C95.2548 188.004 85.5672 193.327 82.2184 201.998C72.8298 225.977 52.9164 301.864 65.6538 344.74C71.2152 358.135 76.1188 369.856 80.4244 379.903C88.4376 384.447 96.9292 386.899 105.78 386.899C152.065 386.839 189.559 319.923 189.559 237.399Z" fill="#6C6D81"/>
<path id="XMLID 6" d="M192.49 201.938C189.141 193.327 179.453 187.945 179.453 187.945C170.423 182.503 161.274 179.214 152.603 177.001C150.331 176.403 148.118 178.137 148.118 180.47V191.174H126.59V180.529C126.59 178.197 124.377 176.463 122.105 177.061C113.374 179.274 104.285 182.563 95.2548 188.004C95.2548 188.004 85.5672 193.327 82.2184 201.998C72.8298 225.977 52.9164 301.864 65.6538 344.74C84.6104 390.128 95.3744 416.979 103.567 422.48C111.64 427.922 127.965 429.238 137.354 428.879C146.743 429.297 163.068 427.982 171.141 422.48C179.274 416.979 190.098 390.128 209.054 344.74C221.792 301.804 201.878 225.918 192.49 201.938Z" stroke="#2F3140" stroke-width="6" stroke-miterlimit="10" stroke-linecap="round" stroke-linejoin="round"/>
<path id="XMLID 8" d="M126.59 187.646V180.41C126.59 178.078 124.437 176.403 122.165 176.942C113.374 179.154 104.225 182.443 95.1352 187.945C95.1352 187.945 85.328 193.267 81.9792 201.938C76.4776 215.931 67.4478 247.625 63.3814 280.097C63.0226 282.967 66.0126 285.06 68.584 283.685C77.3746 278.96 86.7632 273.997 93.2216 270.947C107.813 264.01 127.726 258.09 134.723 256.117C136.278 255.698 137.294 254.263 137.294 252.708V194.762C137.294 192.789 135.68 191.234 133.766 191.234H130.118C128.205 191.174 126.59 189.619 126.59 187.646Z" stroke="#2F3140" stroke-width="6" stroke-miterlimit="10" stroke-linecap="round" stroke-linejoin="round"/>
<path id="XMLID 9" d="M192.49 201.938C189.141 193.327 179.453 187.945 179.453 187.945C170.423 182.503 161.274 179.214 152.603 177.001C150.331 176.403 148.118 178.137 148.118 180.47V191.174H137.354V255.399C137.354 255.399 163.247 262.336 181.307 270.947C187.765 273.997 197.154 278.96 205.885 283.685C208.456 285.06 211.446 282.967 211.087 280.097C207.021 247.625 197.991 215.931 192.49 201.938Z" stroke="#2F3140" stroke-width="6" stroke-miterlimit="10" stroke-linecap="round" stroke-linejoin="round"/>
<path id="XMLID 16" d="M137.354 323.332C131.434 323.332 126.59 318.488 126.59 312.568V186.988C126.59 183.819 129.161 181.188 132.391 181.188H142.377C145.547 181.188 148.178 183.759 148.178 186.988V312.568C148.118 318.548 143.274 323.332 137.354 323.332Z" fill="#7C7C94"/>
<path id="XMLID 32" d="M148.118 214.676V186.988C148.118 183.819 145.547 181.188 142.317 181.188H132.331C129.161 181.188 126.53 183.759 126.53 186.988V305.871L148.118 214.676Z" fill="#9093A2"/>
<path id="XMLID 23" d="M142.078 284.223V267.299C142.078 264.728 139.985 262.575 137.354 262.575C134.723 262.575 132.63 264.668 132.63 267.299V284.223H142.078Z" fill="#3C4155"/>
<path id="XMLID 22" d="M142.078 289.007V305.93C142.078 308.502 139.985 310.654 137.354 310.654C134.723 310.654 132.63 308.561 132.63 305.93V289.007H142.078V289.007Z" fill="#3C4155"/>
<path id="XMLID 3" d="M137.354 323.332C131.434 323.332 126.59 318.488 126.59 312.568V187.048C126.59 183.819 129.221 181.188 132.45 181.188H142.317C145.547 181.188 148.178 183.819 148.178 187.048V312.568C148.118 318.548 143.274 323.332 137.354 323.332Z" stroke="#2F3140" stroke-width="6" stroke-miterlimit="10" stroke-linecap="round" stroke-linejoin="round"/>
<path id="XMLID 5" d="M139.268 244.575H135.381C133.168 244.575 131.374 242.781 131.374 240.569V213.958C131.374 211.745 133.168 209.951 135.381 209.951H139.268C141.48 209.951 143.274 211.745 143.274 213.958V240.569C143.334 242.781 141.48 244.575 139.268 244.575Z" fill="#3B4254"/>
<g id="XMLID 18">
<g id="XMLID 79">
<path id="XMLID 80" d="M132.032 241.107H142.676" stroke="#7A94C7" stroke-width="2" stroke-miterlimit="10" stroke-linecap="round" stroke-linejoin="round"/>
</g>
<g id="XMLID 76">
<path id="XMLID 77" d="M132.032 237.519H142.676" stroke="#7A94C7" stroke-width="2" stroke-miterlimit="10" stroke-linecap="round" stroke-linejoin="round"/>
</g>
<g id="XMLID 73">
<path id="XMLID 74" d="M132.032 233.931H142.676" stroke="#7A94C7" stroke-width="2" stroke-miterlimit="10" stroke-linecap="round" stroke-linejoin="round"/>
</g>
<g id="XMLID 70">
<path id="XMLID 71" d="M132.032 230.343H142.676" stroke="#7A94C7" stroke-width="2" stroke-miterlimit="10" stroke-linecap="round" stroke-linejoin="round"/>
</g>
<g id="XMLID 67">
<path id="XMLID 68" d="M132.032 226.755H142.676" stroke="#7A94C7" stroke-width="2" stroke-miterlimit="10" stroke-linecap="round" stroke-linejoin="round"/>
</g>
<g id="XMLID 64">
<path id="XMLID 65" d="M132.032 223.167H142.676" stroke="#7A94C7" stroke-width="2" stroke-miterlimit="10" stroke-linecap="round" stroke-linejoin="round"/>
</g>
<g id="XMLID 61">
<path id="XMLID 62" d="M132.032 219.579H142.676" stroke="#7A94C7" stroke-width="2" stroke-miterlimit="10" stroke-linecap="round" stroke-linejoin="round"/>
</g>
<g id="XMLID 58">
<path id="XMLID 59" d="M132.032 215.991H142.676" stroke="#7A94C7" stroke-width="2" stroke-miterlimit="10" stroke-linecap="round" stroke-linejoin="round"/>
</g>
<g id="XMLID 55">
<path id="XMLID 56" d="M132.032 212.403H142.676" stroke="#7A94C7" stroke-width="2" stroke-miterlimit="10" stroke-linecap="round" stroke-linejoin="round"/>
</g>
</g>
<g id="XMLID 19">
<path id="XMLID 30" d="M139.268 244.575C137.952 244.575 136.696 244.575 135.381 244.575C133.168 244.575 131.195 242.781 130.955 240.569C130.178 231.718 130.178 222.808 130.955 213.958C131.195 211.745 133.168 209.951 135.381 209.951C136.696 209.951 137.952 209.951 139.268 209.951C141.48 209.951 143.454 211.745 143.693 213.958C144.47 222.808 144.47 231.718 143.693 240.569C143.513 242.781 141.48 244.575 139.268 244.575Z" stroke="#2F3140" stroke-width="3" stroke-miterlimit="10" stroke-linecap="round" stroke-linejoin="round"/>
</g>
<path id="XMLID 2" d="M140.344 244.575H134.364C132.69 244.575 131.374 243.26 131.374 241.585V212.881C131.374 211.207 132.69 209.891 134.364 209.891H140.344C142.018 209.891 143.334 211.207 143.334 212.881V241.585C143.334 243.26 141.959 244.575 140.344 244.575Z" stroke="#2F3140" stroke-width="3" stroke-miterlimit="10" stroke-linecap="round" stroke-linejoin="round"/>
<path id="XMLID 25" d="M142.078 284.223V267.299C142.078 264.728 139.985 262.575 137.354 262.575C134.723 262.575 132.63 264.668 132.63 267.299V284.223H142.078Z" stroke="#2F3140" stroke-width="3" stroke-miterlimit="10" stroke-linecap="round" stroke-linejoin="round"/>
<path id="XMLID 21" d="M142.078 289.007V305.93C142.078 308.502 139.985 310.654 137.354 310.654C134.723 310.654 132.63 308.561 132.63 305.93V289.007H142.078V289.007Z" stroke="#2F3140" stroke-width="3" stroke-miterlimit="10" stroke-linecap="round" stroke-linejoin="round"/>
</g>
</svg>
