<svg width="184" height="123" viewBox="0 0 184 123" fill="none" xmlns="http://www.w3.org/2000/svg">
<path id="Vector" d="M177.83 53.6395L153.988 69.1088L168.431 42.179C164.341 38.8333 159.281 36.9802 154.049 36.9125H153.666C152.012 36.9457 150.359 36.8194 148.729 36.5352L140.664 41.786L144.113 35.3404C138.4 33.2842 133.464 29.4335 130.007 24.3359L115.579 33.7684L124.687 16.7584C116.254 6.36695 104.877 0 92.3497 0C77.3389 0 63.9686 9.14952 55.3362 23.424C52.7764 27.6987 49.1577 31.2017 44.8484 33.5765C40.5391 35.9514 35.6932 37.1133 30.8037 36.944H30.0064C13.4316 36.944 0 56.202 0 79.9719C0 103.742 13.4316 123 30.0064 123C33.6484 122.988 37.2326 122.065 40.4481 120.312C46.0913 117.505 52.2613 115.986 58.5324 115.862C64.8035 115.737 71.0263 117.008 76.7716 119.588C81.6249 121.824 86.883 122.986 92.2035 123C97.5241 123.013 102.788 121.878 107.652 119.667C113.35 117.135 119.511 115.888 125.72 116.01C131.929 116.132 138.039 117.621 143.638 120.374C146.834 122.085 150.383 122.985 153.988 123C170.563 123 183.994 103.742 183.994 79.9719C184.126 70.8033 182.007 61.748 177.83 53.6395V53.6395Z" fill="#F2F2F2"/>
</svg>
