<svg width="442" height="198" viewBox="0 0 442 198" fill="none" xmlns="http://www.w3.org/2000/svg">
<g id="plane">
<path id="Vector" d="M36.6114 99.2799C41.2155 100.982 49.3022 102.381 58.6612 103.506C84.1087 106.569 118.981 107.656 118.981 107.656C118.981 107.656 298.249 122.569 432.608 67.1036C432.608 67.1036 452.15 56.8272 434.021 42.9962C431.23 40.9295 428.262 39.1136 425.152 37.5697L424.931 37.3475C422.869 35.4359 420.64 33.7131 418.272 32.1999C411.312 27.6857 399.559 22.3348 385.252 24.7597L32.3701 82.0076C32.3701 82.0076 19.4814 92.9316 36.6114 99.2799Z" fill="#373365"/>
<path id="Vector_2" d="M106.922 73.3337L33.0488 20.7607L0.490142 26.4094L32.3702 82.0076C32.3702 82.0076 106.074 82.5985 106.922 73.3337Z" fill="#373365"/>
<path id="Vector_3" d="M292.905 41.3938L145.758 0L122.04 4.97273L188.509 34.9652L209.282 58.2784L292.905 41.3938Z" fill="#373365"/>
<path id="Vector_4" d="M58.6612 103.506C84.1087 106.569 118.981 107.656 118.981 107.656C118.981 107.656 298.249 122.569 432.608 67.1036C432.608 67.1036 452.15 56.8272 434.021 42.9962L433.96 43.2514C433.96 43.2514 404.969 62.906 266.449 79.3133L58.6612 103.506Z" fill="#1D69FC"/>
<path id="Vector_5" d="M82.3132 102.371L16.5267 129.315L2.26672e-06 127.476L39.3494 97.8098C39.3494 97.8098 86.9456 87.6232 82.3132 102.371Z" fill="#373365"/>
<path id="Vector_6" d="M410.105 46.1302C413.244 46.1822 420.435 40.9022 424.907 37.3476C422.845 35.4359 420.617 33.7132 418.249 32.1999C414.643 34.9746 408.23 39.4652 404.662 39.2903C399.512 39.0776 405.379 46.0451 410.105 46.1302Z" fill="#1D69FC"/>
<path id="Vector_7" d="M111.234 195.506L153.472 197.723L272.227 117.403L294.272 102.489L304.979 95.243C284.889 78.226 202.925 101.695 202.925 101.695C201.356 103.024 200.856 105.231 200.927 107.67C201.064 112.236 203.203 117.597 204.028 119.525C204.226 119.998 204.348 120.249 204.348 120.249L111.234 195.506Z" fill="#373365"/>
</g>
</svg>
